<svg width="1439" height="1439" viewBox="0 0 1439 1439" fill="none" xmlns="http://www.w3.org/2000/svg">
<circle cx="719" cy="626" r="595.5" fill="#012030" stroke="white" stroke-width="61"/>
<path d="M639.5 1021.5C692.246 991.491 724.042 974.688 859 945.5C848.963 828.75 849.255 742.231 864.016 607C797.966 623.256 766.046 651.088 709.872 703.5C684.487 798.326 662.409 900.532 639.5 1021.5Z" fill="#F2EADB"/>
<path d="M507.5 945.5C521.353 955.999 533.609 972.735 589 1021.5C601.063 962.49 613.17 907.607 625.953 855.5C587.996 849.337 568.128 840.946 540.5 818.5C524.271 872.921 522.936 883.217 507.5 945.5Z" fill="#F2EADB"/>
<path d="M930.5 141C765.515 416.155 687.823 603.307 625.953 855.5C613.17 907.607 601.063 962.49 589 1021.5H614.25H639.5C662.409 900.532 684.487 798.326 709.872 703.5C759.954 516.412 822.906 358.051 930.5 141Z" fill="white"/>
<path d="M617 1285.5C617.182 1179.43 625.953 1124.5 639.5 1021.5H614.25H589C587.489 1138.25 583.651 1189.31 576 1276.5V1435L617 1285.5Z" fill="white"/>
<path d="M930.5 141C822.906 358.051 759.954 516.412 709.872 703.5C766.71 626.205 800.915 586.387 873.002 532C885.662 433.708 904.472 310.156 930.5 141Z" fill="#F2EADB"/>
<path d="M625.953 855.5C687.823 603.307 765.515 416.155 930.5 141C732.174 337.404 626.054 539.023 555 761.5C566.5 801.5 592.308 822.223 625.953 855.5Z" fill="#F2EADB"/>
<path d="M638.896 1022L638.808 1022.47L638.871 1022.43C625.403 1124.76 616.685 1179.71 616.5 1285.43L576.5 1431.29V1276.52C584.14 1189.46 587.978 1138.41 589.493 1022H638.896ZM924.494 152.02C820.295 363.299 758.644 519.409 709.426 703.231V703.232L709.389 703.371C684.028 798.107 661.969 900.203 639.086 1021H589.613C601.257 964.066 612.945 910.975 625.243 860.512L626.439 855.619C687.486 606.783 763.935 421.287 924.494 152.02ZM540.767 819.357C554.357 830.345 566.12 837.948 579.155 843.565C592.249 849.208 606.602 852.839 625.339 855.905C612.662 907.614 600.648 962.058 588.683 1020.55C561.38 996.493 544.647 980.291 533.024 968.795C521.47 957.366 514.928 950.55 508.063 945.302C523.361 883.563 524.77 873.048 540.767 819.357ZM863.44 607.659C848.771 742.344 848.481 828.748 858.464 945.104C791.23 959.656 749.625 971.135 718.247 982.723C687.169 994.2 666.135 1005.78 640.192 1020.53C663.017 900.092 685.027 798.261 710.317 703.768C766.222 651.61 798.036 623.896 863.44 607.659ZM928.019 144.171C764.605 417.182 687.269 603.757 625.678 854.526C592.336 821.607 566.927 801.008 555.522 761.507C626.217 540.213 731.624 339.579 928.019 144.171ZM929.514 144.12C903.759 311.517 885.113 434.082 872.532 531.727C801.175 585.584 766.919 625.208 711.045 701.066C760.782 515.966 823.295 358.674 929.514 144.12Z" stroke="white"/>
</svg>
