<svg width="1252" height="1435" viewBox="0 0 1252 1435" fill="none" xmlns="http://www.w3.org/2000/svg">
<circle cx="626" cy="626" r="595.5" fill="#012030" stroke="white" stroke-width="61"/>
<path d="M546.5 1021.5C599.246 991.491 631.042 974.688 766 945.5C755.963 828.75 756.255 742.231 771.016 607C704.966 623.256 673.046 651.088 616.872 703.5C591.487 798.326 569.409 900.532 546.5 1021.5Z" fill="#F2EADB"/>
<path d="M414.5 945.5C428.353 955.999 440.609 972.735 496 1021.5C508.063 962.49 520.17 907.607 532.953 855.5C494.996 849.337 475.128 840.946 447.5 818.5C431.271 872.921 429.936 883.217 414.5 945.5Z" fill="#F2EADB"/>
<path d="M837.5 141C672.515 416.155 594.823 603.307 532.953 855.5C520.17 907.607 508.063 962.49 496 1021.5H521.25H546.5C569.409 900.532 591.487 798.326 616.872 703.5C666.954 516.412 729.906 358.051 837.5 141Z" fill="white"/>
<path d="M524 1285.5C524.182 1179.43 532.953 1124.5 546.5 1021.5H521.25H496C494.489 1138.25 490.651 1189.31 483 1276.5V1435L524 1285.5Z" fill="white"/>
<path d="M837.5 141C729.906 358.051 666.954 516.412 616.872 703.5C673.71 626.205 707.915 586.387 780.002 532C792.662 433.708 811.472 310.156 837.5 141Z" fill="#F2EADB"/>
<path d="M532.953 855.5C594.823 603.307 672.515 416.155 837.5 141C639.174 337.404 533.054 539.023 462 761.5C473.5 801.5 499.308 822.223 532.953 855.5Z" fill="#F2EADB"/>
<path d="M545.896 1022L545.808 1022.47L545.871 1022.43C532.403 1124.76 523.685 1179.71 523.5 1285.43L483.5 1431.29V1276.52C491.14 1189.46 494.978 1138.41 496.493 1022H545.896ZM831.494 152.02C727.295 363.299 665.644 519.409 616.426 703.231V703.232L616.389 703.371C591.028 798.107 568.969 900.203 546.086 1021H496.613C508.257 964.066 519.945 910.975 532.243 860.512L533.439 855.619C594.486 606.783 670.935 421.287 831.494 152.02ZM447.767 819.357C461.357 830.345 473.12 837.948 486.155 843.565C499.249 849.208 513.602 852.839 532.339 855.905C519.662 907.614 507.648 962.058 495.683 1020.55C468.38 996.493 451.647 980.291 440.024 968.795C428.47 957.366 421.928 950.55 415.063 945.302C430.361 883.563 431.77 873.048 447.767 819.357ZM770.44 607.659C755.771 742.344 755.481 828.748 765.464 945.104C698.23 959.656 656.625 971.135 625.247 982.723C594.169 994.2 573.135 1005.78 547.192 1020.53C570.017 900.092 592.027 798.261 617.317 703.768C673.222 651.61 705.036 623.896 770.44 607.659ZM835.019 144.171C671.605 417.182 594.269 603.757 532.678 854.526C499.336 821.607 473.927 801.008 462.522 761.507C533.217 540.213 638.624 339.579 835.019 144.171ZM836.514 144.12C810.759 311.517 792.113 434.082 779.532 531.727C708.175 585.584 673.919 625.208 618.045 701.066C667.782 515.966 730.295 358.674 836.514 144.12Z" stroke="white"/>
</svg>
